Simulation
nRows=44
nColumns=15
endheader
time  TH_x TH_y TH_z SC_y  SC_z  SC_x  AC_y  AC_z  AC_x  GH_y  GH_z  GH_yy  EL_x  PS_y
1.5  0.000000  0.000000  0.000000  -28.858290227727085  4.40166886878127  6.731066768588696  74.8487307241393  20.24087573836973  1.550346429276443  22.061974701472366  56.110380699819046  -42.15320739133784  38.84235187533653  120.000000
1.53  0.000000  0.000000  0.000000  -28.82248216132238  4.372261054721343  6.759377809085415  74.75484520063175  20.20911323970477  1.4641559375268047  22.166046866319057  56.00422734896563  -42.25811184966309  38.90289314055008  120.000000
1.56  0.000000  0.000000  0.000000  -28.781299513086775  4.341078470357722  6.75711360937081  74.65329933293636  20.19250571246409  1.3804568220400988  22.2814780793125  55.89314047344844  -42.37104092034881  38.95919396828578  120.000000
1.5899999999999999  0.000000  0.000000  0.000000  -28.735895534016628  4.307032584156905  6.7230817102359755  74.55187345196973  20.18760735623647  1.30147863643326  22.399387171281006  55.77639089190026  -42.482820060674015  39.00924599654105  120.000000
1.6199999999999999  0.000000  0.000000  0.000000  -28.687459131977224  4.26897056520571  6.657255944325733  74.45622144076664  20.19033036336226  1.2280877310750398  22.513001347688064  55.65083874702428  -42.58318657204427  39.0512532326467  120.000000
1.65  0.000000  0.000000  0.000000  -28.637047758894855  4.225740132398238  6.560259239794271  74.36920781574335  20.196719248539786  1.1597218978445891  22.618410398287903  55.510891489712826  -42.66159790529127  39.083750279384304  120.000000
1.68  0.000000  0.000000  0.000000  -28.585309075764666  4.176165101137937  6.4327835992602695  74.29101427616285  20.203551010548196  1.0946816827565569  22.71458191693464  55.34876940675043  -42.70802532321683  39.105628047402746  120.000000
1.71  0.000000  0.000000  0.000000  -28.532195569492806  4.11906067828394  6.27510719147201  74.21957409057623  20.208703270172677  1.0305792430952225  22.80279773354699  55.15509573183835  -42.71363331598798  39.11621110479499  120.000000
1.74  0.000000  0.000000  0.000000  -28.47683863876767  4.053265561211643  6.086992557362695  74.1511046304697  20.21141734971004  0.9647253542129703  22.8856876684601  54.91950401416506  -42.67115123809898  39.11532942829777  120.000000
1.77  0.000000  0.000000  0.000000  -28.41745837387267  3.9776214108596295  5.867736997167305  74.08055804992469  20.212295057377155  0.8944433328643125  22.966145728792288  54.631344092923975  -42.574872032345304  39.10333801769926  120.000000
1.7999999999999998  0.000000  0.000000  0.000000  -28.351455397476467  3.89096718481114  5.616297409426746  74.0022577659422  20.213122171329065  0.8171809662882454  23.046326395122698  54.280242348447125  -42.420312332646446  39.08113206989939  120.000000
1.8299999999999998  0.000000  0.000000  0.000000  -28.275613293856182  3.792174115174061  5.33124191031855  73.91020920961637  20.216332324560327  0.7307272134276175  23.127007549853545  53.856866956991254  -42.203273030895055  39.0501431898057  120.000000
1.8599999999999999  0.000000  0.000000  0.000000  -28.186373351641834  3.680161840991778  5.010722167529402  73.79862949686985  20.22451359431092  0.6332240223487178  23.207140340653524  53.35355064981618  -41.918936241595006  39.01219211058877  120.000000
1.89  0.000000  0.000000  0.000000  -28.079988774494687  3.5539167129698708  4.652261973664637  73.66209814766167  20.239723485627675  0.5233906617447897  23.28365723989445  52.76516272082089  -41.56078129503242  38.96934378241467  120.000000
1.92  0.000000  0.000000  0.000000  -27.952713212040937  3.4125313217892135  4.252707391108175  73.49592630818535  20.263084566097604  0.40058412787530734  23.35144460228728  52.08962247351279  -41.12002647490199  38.92375687033786  120.000000
1.95  0.000000  0.000000  0.000000  -27.80090691844311  3.2552549882524797  3.8082159981339325  73.2960655750362  20.29441854108452  0.26503076834564665  23.403647890545294  51.32835683025095  -40.5853524650324  38.87756982721845  120.000000
1.98  0.000000  0.000000  0.000000  -27.621260280030864  3.0815989258481444  3.3146213611303694  73.05921016561696  20.332397769601815  0.11785882520322279  23.432167671312406  50.48599129186342  -39.943522594995905  38.83282569980258  120.000000
2.01  0.000000  0.000000  0.000000  -27.411023021857456  2.891502401445565  2.7680989591957292  72.78250570906847  20.374607157232436  -0.03881616975503206  23.428600161394012  49.56979177989216  -39.180289246776866  38.79137153197015  120.000000
2.04  0.000000  0.000000  0.000000  -27.16832422727095  2.6853539111576934  2.1659133099251613  72.46371937176437  20.417944911721026  -0.20207056609455679  23.38519962899487  48.588594959584874  -38.28198078546824  38.7547615302346  120.000000
2.07  0.000000  0.000000  0.000000  -26.892506629747928  2.464031804427507  1.5064803727724219  72.10110220832908  20.459658155198312  -0.36812511987999397  23.29579307650587  47.55202258918476  -37.23713393174871  38.72402185671229  120.000000
2.1  0.000000  0.000000  0.000000  -26.584472471583663  2.2292635924315625  0.7897727124919118  71.6932244466935  20.498611034634674  -0.5323575894627778  23.156194662353915  46.46943922352576  -36.03813863961553  38.69946126893744  120.000000
2.13  0.000000  0.000000  0.000000  -26.24662645206192  1.9837590721216591  0.017884826955521443  71.23853026591885  20.53554167667669  -0.6897863728512986  22.964116386849575  45.34955492456168  -34.68268207475878  38.68064353983615  120.000000
2.16  0.000000  0.000000  0.000000  -25.882512706604846  1.7311775712601645  -0.8047253947862886  70.73506501860732  20.573034431611156  -0.8357198903062953  22.718786775646137  44.1998025752301  -33.174723594990034  38.66663821299775  120.000000
2.19  0.000000  0.000000  0.000000  -25.496234893047742  1.4765454899291812  -1.6708169379030675  70.18027714921395  20.613956251906586  -0.9660557445155218  22.42092087735434  43.02579778486953  -31.524659549156844  38.65682441200546  120.000000
2.2199999999999998  0.000000  0.000000  0.000000  -25.091482957187413  1.2254869456675708  -2.570113219063482  69.57185979464424  20.65937474378071  -1.0779249853641626  22.072668299748113  41.83106239787482  -29.748966349482675  38.6516066418661  120.000000
2.25  0.000000  0.000000  0.000000  -24.670404994253843  0.9837592860702071  -3.491407668367758  68.90863457394529  20.709092026506074  -1.1692798179665578  21.676659705722052  40.61698552889885  -27.869183961701513  38.65278546264397  120.000000
2.28  0.000000  0.000000  0.000000  -24.234220685210826  0.7580471673808751  -4.424466917453471  68.19027106129619  20.762702681952916  -1.2375021494978704  21.234975565488632  39.38351058917501  -25.908382076944836  38.66376397948809  120.000000
2.31  0.000000  0.000000  0.000000  -23.78343619533151  0.5546046214318373  -5.35951363646998  67.41795095414108  20.819119684892183  -1.2806790599498425  20.74704250126294  38.13008569705614  -23.887137915899743  38.68877358478543  120.000000
2.34  0.000000  0.000000  0.000000  -23.317039763927568  0.3785293989051076  -6.287414251548152  66.59467490502642  20.875519558018002  -1.297666868635723  20.207399968844882  36.85739753625802  -21.81890134470094  38.73051147166146  120.000000
2.37  0.000000  0.000000  0.000000  -22.833545746821027  0.23469843473798196  -7.199343456583232  65.72601579513935  20.92770921419615  -1.2871535013125355  19.60485868380295  35.5681195047777  -19.70475946261083  38.78886650774806  120.000000
2.4  0.000000  0.000000  0.000000  -22.330427241282383  0.12794663810603568  -8.086456794441876  64.81900207617173  20.969961626505864  -1.2480349351747417  18.923025837935995  34.268280185890724  -17.529867999487436  38.86065909839346  120.000000
2.4299999999999997  0.000000  0.000000  0.000000  -21.80433158067354  0.06167084592234333  -8.939401373629929  63.88256077538924  20.995477826049235  -1.1807883136592012  18.142091033670642  32.966324141821936  -15.263814132715677  38.93890393331579  120.000000
2.46  0.000000  0.000000  0.000000  -21.251586289261205  0.036989982850235796  -9.749361977355214  62.926367124509355  20.99601705122156  -1.0878254295591834  17.24217487029836  31.672492791600902  -12.86598280003674  39.0137533284497  120.000000
2.4899999999999998  0.000000  0.000000  0.000000  -20.67016858233021  0.05323097785516674  -10.507917777047862  61.95968730758498  20.96349512917278  -0.9714920910032491  16.20670121308609  30.395875841531048  -10.293368909045348  39.07416186657627  120.000000
2.52  0.000000  0.000000  0.000000  -20.063479735770134  0.10564700510054713  -11.207974839642796  60.99314721415067  20.89204654961132  -0.8369843193191981  15.024455277589267  29.147239629221147  -7.513042442370637  39.11178740443861  120.000000
2.55  0.000000  0.000000  0.000000  -19.439950001762515  0.18676568622116752  -11.844892712129065  60.04034304243923  20.778887524562627  -0.6938906107382649  13.688810153968056  27.939547126852837  -4.5128671453637885  39.122928417217  120.000000
2.58  0.000000  0.000000  0.000000  -18.813017454290087  0.2887797690997348  -12.41608189932309  59.11701540076553  20.623504927411588  -0.552913521663372  12.198575194524082  26.78500644657673  -1.3053641157655524  39.106581566401864  120.000000
2.61  0.000000  0.000000  0.000000  -18.202203011404677  0.40234541419577774  -12.921062340958269  58.23745368061038  20.42805836907924  -0.42385441378938166  10.558529620985437  25.694423637704116  2.0757924981323206  39.066179030109225  120.000000
2.6399999999999997  0.000000  0.000000  0.000000  -17.63002206683061  0.5176716468582936  -13.360388228547238  57.41578119302195  20.199490246226134  -0.31745334141202397  8.777950135542314  24.675612013086027  5.581840871008229  39.0081155870087  120.000000
2.67  0.000000  0.000000  0.000000  -17.118324223105326  0.6255293476810162  -13.734287139120035  56.661624764907785  19.9470241732492  -0.24327471264358344  6.870046102509322  23.735367195039387  9.158059274056061  38.93803937944172  120.000000
2.6999999999999997  0.000000  0.000000  0.000000  -16.683049157052235  0.7179865819642037  -14.042359911150204  55.979677125375744  19.679736625583722  -0.20955894410352524  4.850483122952302  22.879403049935533  12.750326757651907  38.86117059943487  120.000000
2.73  0.000000  0.000000  0.000000  -16.32932522214539  0.7889648410766519  -14.28475581408848  55.37063182237512  19.402676548224353  -0.22231173093271184  2.738429556365529  22.11297637501544  16.31183566553042  38.78131873738434  120.000000
2.76  0.000000  0.000000  0.000000  -16.05320981104509  0.8330663628143433  -14.46382588972403  54.83443647759569  19.116868189942213  -0.2834377285771165  0.5555140655277735  21.439619811371948  19.805564582098416  38.70097027177609  120.000000
2.79  0.000000  0.000000  0.000000  -15.84578951957014  0.8458696606416726  -14.584720589336154  54.3722778960701  18.821208092659447  -0.39056196480160116  -1.6755485404466677  20.86089509818754  23.204138520374187  38.623463128104625  120.000000
